<svg xmlns="http://www.w3.org/2000/svg" viewBox="0 0 1920 1080">
  <defs>
    <style>
      .cls-1 {
        fill: #001d3d;
      }

      .cls-2, .cls-3, .cls-4 {
        fill: none;
        stroke-miterlimit: 10;
        stroke-width: 5px;
      }

      .cls-2 {
        stroke: #39ff14;
      }

      .cls-3 {
        stroke: #ff0afb;
      }

      .cls-4 {
        stroke: #03e9f4;
      }
    </style>
  </defs>
  <title>carousel-wave</title>
  <g id="Layer_2" data-name="Layer 2">
    <rect class="cls-1" x="-24" y="-19" width="1966" height="1130"/>
  </g>
  <g id="Layer_1" data-name="Layer 1">
    <g>
      <path class="cls-2" d="M-24.47,1037.49c29.76-37.73,74.62-88,126.66-88.35,36.59-.22,71.26,22.13,103,38,46.06,23.08,93.09,44.66,142.77,57.84,53.33,14.15,102.46,8.84,153.07-12.91,54.16-23.28,103.1-44.92,162.56-49.58,80.87-6.35,164.83,4.26,242.59,28.93,29.33,9.31,58.17,20.27,88.12,27.51,40.93,9.91,83,12.36,124.67,10.32,68-3.33,131.94-21.77,197.87-38.79,62.33-16.1,124.46-20.82,188.49-16.33,44.4,3.11,84.39,13.23,125.25,30.65,40.3,17.18,80.22,28.77,123.89,31.7,51.78,3.46,104.58-4.31,154.6-18.83,77.69-22.56,142.27-64.73,205.42-114.19"/>
      <path class="cls-2" d="M-24.46,1007.49c27.24-34,70-87.59,118.69-85.62,34,1.38,65.81,25.44,95,40.8,47.13,24.81,96.86,45,148.47,55.89,51.32,10.82,99.62,10.9,148-12.54,18.54-9,36.24-19.61,55.17-27.79,29.83-12.89,61.33-19.43,93.34-22.2,88.56-7.66,181.71,2.69,268.26,25.3,75,19.59,145.64,40.75,224.12,36.41,70.76-3.91,138.18-20.56,207.28-35.33,63.93-13.67,127-16.28,192-11.09,41.93,3.34,79.32,12,117.75,29,37.25,16.41,74.16,26,114.7,28.49A465.27,465.27,0,0,0,1915,1011.05c77.31-22.42,137.75-67.68,199.51-117.54"/>
      <path class="cls-2" d="M-24.47,977.49c24.78-31.19,66.1-87,111.71-83.21,31.24,2.56,59.29,28.72,85.3,44.11a459.73,459.73,0,0,0,147.61,56.2c49,9.35,97.93,12,143.39-13,16.24-8.94,31.52-19.48,48.2-27.65,29-14.2,60.19-21.13,92-24.27,96.61-9.54,199,1.24,294.21,21.48,81.28,17.27,159.76,37.87,243.5,34,72.21-3.35,142-17.83,213.12-30.42,64.75-11.47,128-11.89,193.28-5.76,40.45,3.79,76.23,11.52,113.05,28.61,34.68,16.09,69.13,24.4,107.17,26.59,52,3,105.58-2.39,155.7-18.11,75.73-23.76,130.66-73.17,190.75-122.54"/>
      <path class="cls-2" d="M-24.49,947.5c23-29.3,63.43-86.58,106.86-81.55,28.55,3.31,52.42,31.85,74.81,47.72,42.28,30,91,49,141,58.46,47.33,9,96.5,12.29,139.58-14.11,15.88-9.74,30.73-20.95,47.3-29.59,28.41-14.82,59.38-22.07,90.84-25.44,103.76-11.12,214.08.1,317.22,18,89.29,15.49,176.61,33.83,267.65,30.91,72.69-2.34,143.51-14.19,215.38-24.77,64.75-9.54,127.41-8,192.35-1,40.13,4.33,75.27,11.82,111.53,29.49,32.88,16,65.27,23.84,101.67,25.93,51.11,2.93,103.68-2.24,152.4-19.65,73-26.1,121.84-80.6,180.38-128.42"/>
      <path class="cls-2" d="M-24.52,917.51c22.35-29,62.37-86.62,105.24-81,26.84,3.53,45.7,34.44,64.36,51.31,36.69,33.19,82.39,52.74,129.69,62.36,46.7,9.49,95.2,11.66,137.05-15.68,15.81-10.32,30.64-21.9,47.31-30.91,29.77-16.1,62.31-24.49,95.47-28.12,109-11.91,224.89-.41,334.08,15.34,97.94,14.12,194.16,29,293.34,27.54,72-1.09,142.57-10.12,214-19,63.88-8,125.38-4.86,189.13,2.67,41,4.85,76.79,12.7,113.54,31.51,31.86,16.31,62.93,24.34,98.58,26.47,49.89,3,100.84-2.38,147.55-22,69-29,113-88.47,169.69-134.44"/>
      <path class="cls-2" d="M-24.54,887.51c23-30.19,62.46-85.77,106.31-81.35,28.69,2.88,40.57,34.31,56.4,54.05,29.2,36.4,70.48,57.41,114.5,67.58C299.81,938.67,347,938,389,910.25c49.34-32.58,95-57,154.62-63.56,111.51-12.21,229.79.17,341.58,14,106,13.12,210.38,24.13,317.28,24.26,70.27.09,139.14-6,208.92-13.88,62.15-7,121.73-3,183.63,4.5,43.11,5.21,81,14.15,119.44,34.56,31.76,16.88,62.37,25.86,98.25,28.18,48.48,3.14,97.73-2.52,141.93-24.76,27.45-13.81,51.1-33.41,72.54-55.25,28.66-29.21,56-58.27,87.37-84.76"/>
      <path class="cls-2" d="M-24.54,857.51c25.2-33.07,64.24-85.45,111.18-83,30.91,1.6,42,31,53.43,55.09,19.29,40.51,52.65,62.51,94.72,74.36,48.61,13.69,94.76,7.49,137.73-19.51,20.74-13,41-26.78,63.17-37.33,34.95-16.62,73.07-24.42,111.13-28.31,110.28-11.27,226-.47,336.35,11.84,55.25,6.16,110.46,12.71,165.93,16.63,56.74,4,113.43,4,170.25,4.8a1570.23,1570.23,0,0,0,200.13-10c59.31-6.74,115.4-4.51,174.58,3.13,46.88,6.05,89.11,17,130.77,39.31,32.42,17.37,64,28.78,101.06,31,47.49,2.87,94.85-2.46,136.31-27.64,24.38-14.81,43.55-35,62.44-56,28.23-31.47,57.26-61.3,89.87-88.31"/>
      <path class="cls-2" d="M-24.52,827.51C4.09,790.8,42.72,741.59,94.14,741.9c33.07.21,46.2,26.86,56.07,54.17,14.67,40.61,31.67,67.34,73.79,81.57,50.13,16.94,96.78,4.69,141.84-21.38C428.52,820,491.54,802,563.68,796.18c105.46-8.49,213.51-6.18,319,4.45,58,5.85,115.94,12.19,174.17,15.54,57.75,3.32,115.47,2.77,173.23,3.87,61.92,1.19,124.69,3.51,185.63-9.63,20.57-4.43,40.87-9.45,62-10.72,32.57-2,65.3,2.88,97.4,7.46,53.86,7.67,103.86,23,152.12,48.29,34.82,18.21,67.92,32.36,107.71,35.07,46.45,3.15,92.79-2.13,131.45-30.26,22.61-16.46,39.81-39,57.77-60.15a618.33,618.33,0,0,1,90.35-86.6"/>
      <path class="cls-2" d="M-24.53,797.51c31-40.81,72.16-86.51,127.35-88.59,34.74-1.31,52.37,21.82,62.63,51.91,12.53,36.77,21,70.06,58.4,86.86,50.25,22.59,100.49-.17,147.83-22.19C441.62,793,513,780.88,589.58,777.21c97.47-4.67,193.88-13.9,291.63-6.46,117,8.92,233.15,16.58,350.49,18.35,55.45.84,110.62,3.62,163.15-16.9,49.93-19.49,95-16.57,147.61-8.82,61,9,119.14,25.9,174.25,54.23,39.43,20.26,76.11,40.83,121.2,44.55,47.41,3.91,91.39-2.89,127.73-35.71,21.48-19.4,38.9-42.82,58.17-64.3,27.08-30.17,58.1-54.74,90.68-78.68"/>
      <path class="cls-2" d="M-24.54,767.51c33-43.64,78-87.76,135.76-91.48,86.09-5.53,67.48,105.39,124.54,137.57,47,26.48,106.18-2,153.14-19C464.56,767.12,540,761,619.94,760c45.6-.58,89.48-8.18,134.55-14.11,41.3-5.44,82.66-6.51,124.26-5,113,4.19,225.58,12.49,338.67,13.14,50.94.29,99.37.92,144.59-24.77,45-25.57,90.56-20.12,140.33-12.85,67.08,9.81,131.8,25.85,193.66,54.65,45.51,21.19,89.18,46.57,140,51.87,48.22,5,89.69-6.9,126-39.75,20.88-18.92,38.91-40.73,59.34-60.12,28.36-26.94,61.22-47.44,93.21-69.66"/>
      <path class="cls-2" d="M-24.53,737.51C10.2,692,58.25,648.63,117.89,643.74c36.41-3,65.87,13,83.21,44.83,16.68,30.6,22.13,69.13,54.76,88.12,47.65,27.73,110,.27,157.55-13.08,78.76-22.1,155.67-22.23,236.79-20.82,41.93.74,80.43-9.64,120.94-19a508.3,508.3,0,0,1,104.64-12.61c104.59-2.13,209.59,3.65,314.06,3.14,49.17-.25,92-2.08,133.29-30.25,42-28.61,89.76-21.72,137.79-15,71.42,9.93,141,23.39,208.3,50.46C1721.31,740.43,1772,767,1828.67,772.3c48.45,4.5,89.63-8.2,127.86-38.37,21-16.57,40.28-35.14,61.92-50.9,30.52-22.24,64.89-38.29,96-59.57"/>
      <path class="cls-2" d="M-24.5,707.5c35.83-46.23,85.26-89.45,145.89-95,37.72-3.43,72,10.78,95.09,40.75,21.68,28.14,31.54,66.21,64,85,48.33,28,110.73,4.92,160.58-5.62,78.9-16.69,155.06-11.59,234.78-8.93,68.27,2.28,129.27-35.42,197-42.29,93.14-9.46,188.47-8.23,281.81-9.64,29.25-.45,60.09-.34,88.18-9.89,15.34-5.22,28-14.28,41.38-23.12,42.42-28.06,92.26-21.38,140.27-15.13,73.33,9.54,145.47,19.16,216.15,42.59,58.35,19.35,115.49,44.22,177.49,48.28,48.1,3.16,91-8.23,132.26-32.85,21.73-13,42.77-26.87,65.52-38,33.44-16.42,68.18-28.18,98.7-50.1"/>
      <path class="cls-2" d="M-24.48,677.49c36.25-46,85.23-89.37,146-95,38.74-3.59,76.82,11.24,105.32,37.22,27.67,25.22,44.86,61.9,78.93,79.81,50.38,26.49,109,10.2,161.77,2.1C543.3,690,616.71,699,692.12,700.88c38.23,1,71.09-9.28,106-24.62,23.47-10.32,46.85-19.39,72-24.65,80.06-16.71,165.85-21.53,247-23.16,28.4-.56,57.81-1.23,85.29-9.67,17.36-5.33,32.44-14.75,48.4-23.09,46.29-24.18,98-18.77,148.08-12.82,72.3,8.59,144.16,13.75,215.12,32,63.55,16.31,126,37.32,192.07,39.16,47.82,1.32,93.25-8,138-24.49,57.38-21.24,120.38-29.25,170.43-66"/>
      <path class="cls-2" d="M-24.46,647.49c35.81-45.13,84.38-89.47,144.3-94.81,40.44-3.6,76.45,14.6,109.48,36.09,34.16,22.22,61.46,56.45,98.89,73.05,51.91,23,106.05,14.75,160.71,8.86,69.38-7.47,137.81,1.75,206.63,1.93,38.6.11,73-8.8,108.66-23.76,21.45-9,42-19.78,64.17-27.11,68.14-22.53,143.71-33.78,214.86-35.34,30-.66,60.48-2,89.79-9.6,19.26-5,37.38-13.22,56.18-19.61,52.48-17.83,107.34-13.33,161.49-7.79,67.78,6.93,135.85,7.72,203.23,19.45,66.94,11.65,132.76,27,201.07,26.37,48.17-.48,96.16-7.71,143.79-14.56,24.06-3.46,48.12-5.28,72.34-7,39.36-2.78,71.68-16.78,103.38-40.17"/>
      <path class="cls-2" d="M-24.47,617.49C9.85,574,58.46,528.16,116.28,523.07c40-3.51,75.69,16.06,108.82,36.17C263.42,582.5,301.8,611,344,626.39c51.91,19,102.61,17.62,156.91,13.4,64.53-5,128.66,1.9,192.64,2.08,62.25.19,117.27-27,174.27-50.09,61.77-25,123.71-43,190.59-44.18,57.14-1,110.06-11.5,166-22.19,57.18-10.93,113.73-6.51,171.33-2,62.76,4.95,125.8,3.51,188.62,8.35,67.66,5.21,134.4,13.81,202.43,10.79,49.72-2.21,98.67-7.31,148.55-4.32,25.88,1.55,51.75,6.73,77.74,5.42,38.11-1.92,71.12-17.83,101.45-40.18"/>
      <path class="cls-2" d="M-24.49,587.5C8.12,545.88,56,498.36,111.34,493.61c38.83-3.33,73.74,17.45,106.1,36.47,42.27,24.84,84.64,50.59,132,64.43,50,14.64,99.82,18.31,151.69,15,63-4,125.66,1,188.22,1s119-26.88,176.9-48.9c22.47-8.55,44.48-18.16,66.77-27.16,38.52-15.54,73.88-20.17,115.28-20.42,60.62-.35,118.76-8.67,178.77-15.76,60.26-7.11,119.72.15,179.77,4.26,59.61,4.09,119.3-.42,179.12.84,66.08,1.4,131.56,1.83,197.55-2.92,51.91-3.73,99.29-5.07,150.72,4.63,25.76,4.85,51.79,9.8,78.13,8.48,38.29-1.91,71.61-17.74,102.18-40.1"/>
      <path class="cls-2" d="M-24.47,557.5c31.39-39.44,76.71-88.77,130-93.25,37.22-3.13,70.81,18.82,101.67,36.94,44.13,25.92,88.61,50.24,137.92,63.79a440.65,440.65,0,0,0,150.43,14.85c62.87-4.59,125.34-.74,187.83-1,63-.29,120.41-26.5,179.31-47.42,23.68-8.41,46.84-18,70.25-27.16,38.07-14.82,72.95-19.73,113.76-20.32,62.1-.9,123.49-6.71,185.46-9.83,64.09-3.22,126.63,7.23,190.34,11.49,56.42,3.77,112-5.19,168.31-7.27,64-2.36,127.63-4.29,191.47-9.27,51.61-4,99.16-3.71,150.16,5.93,25.88,4.89,52,9.79,78.5,8.52,38.69-1.85,72.53-17.5,103.55-40"/>
      <path class="cls-2" d="M-24.46,527.5C5.34,490.16,48.46,439,99.38,434.92c35.26-2.83,67,20.12,95.9,37.57,44.51,26.84,90,50.5,140.27,63.54,49.62,12.87,99.3,18.56,150.7,14.16,63.59-5.44,126.79-2.75,190.12-3.43S798,520.83,857.76,501c24.27-8.06,48-17.38,71.93-26.37,38.23-14.36,73.49-19.74,114.25-20.19,64.85-.7,130.19-3,195.2-2.5,68.15.49,134.55,14.12,202.19,19.21,53.07,4,104.17-9.83,156.67-15.57,60.35-6.6,121.1-11.21,181.48-16.82,51.33-4.76,99.14-3.66,149.9,5.87,26.92,5.06,54.11,10.08,81.64,8.56,38.53-2.13,72.41-17.39,103.47-39.68"/>
      <path class="cls-2" d="M-24.47,497.5C3.42,462.64,44.62,409,93.36,405.58c33.33-2.32,62.64,21.4,89.21,38.31,43.75,27.84,89.23,50.95,139.38,63.62s100.43,18.24,152.26,13.11c65.06-6.42,129.71-4.92,194.64-6,63.81-1.09,122.46-25.22,183-44.06,24.22-7.54,47.95-16.22,71.78-24.88,39.09-14.19,75.06-20.11,116.64-20.08,68.65.05,138.29,1.86,207,5.62,72.27,3.95,142.74,20.25,214.48,26.92,50,4.66,96.56-14,145-23.55,55.78-11.07,112.87-18.64,169.18-25.53,51-6.24,98.79-4.23,149.37,5.19,69.38,12.93,129.35,11.82,189.15-30.71"/>
      <path class="cls-2" d="M-24.49,467.5C1.76,434.29,41.32,379.27,88,376.17c31.13-2.08,57.93,22.62,81.9,39.1,42,28.84,86.54,51.62,135.74,64,50.92,12.85,102.29,17.71,154.84,11.8,67.11-7.55,133.79-7.13,200.92-8.67,64-1.47,123-24.53,184.09-42.41,24.52-7.17,48.57-15.48,72.69-23.86,39.53-13.74,76-19.86,117.83-19.07,73,1.38,147.13,7.31,220.08,14,76.2,7,150.87,26.41,226.35,34.11,48,4.89,89.06-17,134.08-30.7,50.6-15.39,103.49-26.25,155.44-34.84,50.68-8.38,98.28-5.26,148.73,4.07,70.41,13,132.89,12.88,193.81-30.24"/>
      <path class="cls-2" d="M-24.5,437.5c24.82-31.91,63.34-88,108.28-90.87,29.14-1.86,53.11,23.67,74.43,39.93,39.3,30,82,52.43,129.66,64.68A420.59,420.59,0,0,0,446,461.59c69.61-8.7,138.77-9.25,208.54-11.15,64.09-1.73,123.07-23.91,184.52-40.92,24.67-6.83,48.9-14.75,73.18-22.82,40-13.3,76.93-19.52,119.09-17.85,77.45,3.07,156.1,12.9,233.42,22.12,79.71,9.5,157.85,31,237,40.24,47,5.5,83-18.63,124.73-36.46,45.14-19.3,93.51-33.68,141.14-44.2,50.13-11.09,97.8-6.49,148.09,2.68,71.6,13.06,136.69,14.18,198.77-29.73"/>
      <path class="cls-2" d="M-24.52,407.5c24-31.25,62.17-87.47,105.75-90.6,27.06-1.94,48.6,24.69,67.1,40.74C184.19,388.75,224.45,411,270,423.2c52.91,14.16,107.47,16.19,162,8.87,72.41-9.71,144.32-11.17,217-13.29,64-1.87,122.7-23.46,184.18-39.72,24.66-6.53,48.92-14.08,73.23-21.82,40.47-12.89,77.8-19.1,120.26-16.58,81.77,4.84,164.6,18.22,246.17,29.41,82.51,11.32,163.5,34,245.45,44.82,46.85,6.17,78.78-18.52,117.73-40.37a603.16,603.16,0,0,1,127.18-53c49.35-14.2,97.55-7.75,147.6,1.23,72.72,13,140.59,15.72,203.7-29.23"/>
      <path class="cls-2" d="M-24.54,377.5C-.8,346.22,37.27,290.09,80.76,287c26.11-1.88,44.24,25.05,60.4,41.47C173,360.73,210,382.85,253.2,395c53.94,15.22,110.42,15.3,166.1,7.49,75.38-10.57,150.16-12.78,225.94-14.94,63.57-1.81,121.77-23.22,183-38.91,24.49-6.29,48.63-13.5,72.8-20.92,40.82-12.52,78.52-18.64,121.16-15.41,85.57,6.48,172,22.85,257.42,35.33,84.36,12.32,167.22,35.42,251,47.33,47.17,6.71,77-16.4,113.89-41.88,35.54-24.54,74.13-46.16,114.43-60.74,48.23-17.46,97.71-8.9,147.4-.11,74.36,13.15,143.47,16.7,208.22-28.79"/>
      <path class="cls-2" d="M-24.54,347.5c24.12-31.9,62.38-87.24,106.35-90.74,27.5-2.18,40.92,23.51,55.72,42,26.71,33.45,60.93,55.67,101.34,67.8,54.88,16.47,113.4,14.43,170.18,6.31,78.31-11.19,156-14,234.83-15.91,62.93-1.52,120.23-23.27,180.75-38.61,65.2-16.53,125.38-40.61,193.49-34.68,88.56,7.72,177.72,26.43,266.26,39.34,84.95,12.38,168.42,34.81,252.71,47.26,47.78,7.06,77.84-12,114-40.48,32.42-25.51,66.2-50.41,103.77-66.8,46.9-20.46,98.5-9.75,147.66-1.15,75.78,13.27,145.64,17.27,212-28.41"/>
      <path class="cls-2" d="M-24.53,317.5c26-34.1,63.49-87.27,110.15-91.45,28.49-2.55,42,20.78,54.72,42.22,21,35.49,49.06,57,87.92,69.49,55.52,17.88,116.25,13.69,174,5.46,80.93-11.53,161.68-16.14,243.3-18.44,61-1.72,118.65-21.46,177.38-36.52,64.52-16.55,124.54-39.84,191.88-33.65,90.4,8.3,181.16,28.61,271.81,40.88,84.09,11.37,166.63,29.52,249.79,43.75,46.9,8,82.82-6,118.83-35.31,31-25.2,60.52-52.87,96.07-70.62,45.65-22.78,99.86-10.11,148.48-1.7,76.33,13.2,147.94,18.23,214.7-28.14"/>
      <path class="cls-2" d="M-24.51,287.5C4.13,250.73,41,200,91.36,195c29.73-2.94,45,17.84,57.12,41.76,17.8,35.16,36.34,58.7,74.19,71.63,56,19.15,118.59,13.3,177.39,5,83.74-11.76,166.67-21.85,251.24-25,58.23-2.19,116.81-16.2,173.41-30.06,63.81-15.63,121.09-39.38,187.83-33.47,91.31,8.08,182.54,30.09,274.45,40.38,82.45,9.24,163.22,22.78,244.57,37.84,44.73,8.29,87.21-2.55,124.4-28.53,32-22.35,57.5-53.51,92.53-71.46,45.78-23.45,101.81-9.92,150-1.6,33.88,5.85,68,12.8,102.55,12,42.33-1,79.24-15.49,113.47-39.95"/>
      <path class="cls-2" d="M-24.53,257.51c30.34-40,69.21-87.73,122.71-93.81,31-3.52,49.37,14.83,62.07,40.87,16,32.8,29.46,59.44,64.15,73.44,55,22.19,121.89,13.77,180.49,3.84,85-14.4,169-28.58,255.11-32.89a1330.57,1330.57,0,0,0,171.93-20.38c21.44-3.94,42-10.79,62.74-17.42,39.71-12.71,77.14-19.34,118.62-15.41,91.56,8.66,182.48,31.59,275.17,38.83,79.49,6.21,157.21,14.51,235.64,28.85,44.13,8.06,90,2.5,129.66-19.46,34.46-19.11,59.54-51.95,93.4-70.75,44.94-25,103.56-8.34,151.63,1.52,33.73,6.92,68,14,102.62,12.39,42.55-2,79.22-18.52,113.09-43.63"/>
      <path class="cls-2" d="M-24.54,227.51c32-42.4,74-88.49,129.79-95.13,32.12-3.82,54.4,12.12,69,39.55,16.46,31,27,59.2,59.93,74.25,54.08,24.72,123.48,13.18,181.39,1.7,84.83-16.81,168.43-34.81,254.92-40.11,36.84-2.26,73.75-5.9,110.69-7.22,20.65-.74,41.42.16,62-1.52,21.23-1.74,41.48-7.52,61.84-13.5,39.14-11.5,75.39-18.42,116-14.26,89.54,9.18,178.64,29.59,269.79,32.46,75.66,2.39,149.32,5.25,224.19,17.88,44.28,7.47,92.34,8.41,135-8,36.92-14.16,64.1-45.47,98-63.79,46.11-25,102.66-6.81,151.67,3,33.61,6.7,67.93,12.71,102.32,9.5,42.66-4,79-23.08,112.55-48.82"/>
      <path class="cls-2" d="M-24.53,197.51C9,153.28,54,108.28,111.75,101.16c33.36-4.11,59.63,10,77.17,38,18.34,29.25,28.84,58.58,60.74,74.1,53.33,26,123.59,11.9,180.56-1,83.52-18.95,165.64-40,251.27-46.25,37.09-2.71,74.8-4.34,112-2.19,21.19,1.22,42.2,4.83,63.4,5.75,21,.9,41.09-2.73,61.43-7.43,39.1-9,75.39-15.57,115.44-11.9,86.3,7.9,172.16,24.87,259.92,22.54,71.41-1.9,140.53-4.3,211.51,6.13,45.52,6.68,94.16,14.15,140,4.61,38.88-8.09,68.93-35.74,103.62-52.13,47.46-22.44,102.14-5.3,152,2.93,33.59,5.55,67.88,9.49,101.76,4,42.56-6.86,78.51-28.55,111.93-54.8"/>
      <path class="cls-2" d="M-24.51,167.5c34.91-45.4,82.1-89.83,141.35-97.29,35-4.41,64.69,8.79,86.09,36.35,20.72,26.69,33.32,58.25,65.86,73.15,55.11,25.22,122.25,10.3,178.35-4,81.23-20.74,160.91-44,244.75-50.83,37.05-3,75-2.82,112,2.15,22.85,3.07,45,9.26,67.69,13.1,20.63,3.48,40.72,2.77,61.39-.11,39.49-5.52,77-11.33,116.86-8.6,82.15,5.66,163.89,18.23,247,10.35,67.2-6.37,131.53-13.38,198.93-5.21,47.57,5.77,95.75,18.95,144.17,16.92,40.63-1.7,72.66-24,109.81-37.3,49.41-17.7,102-3.82,152.49,1.62,33.68,3.63,67.83,4.66,101-3.41,42.17-10.26,77.68-34.34,111.3-60.85"/>
      <path class="cls-2" d="M-24.49,137.5C11.33,91.64,59.64,47.32,119.68,39.68c36.85-4.69,69.53,8.25,95.08,34.69C239.13,99.6,256,131,289.42,145.85c54.95,24.44,120.05,8.65,175.08-6.89,78.24-22.11,154.67-46.54,236-53.37C739.67,82.3,780.09,84,818.84,92c22.75,4.69,44.52,12.44,66.85,18.64,58.76,16.32,122.08.71,181.75,3,77.65,2.94,154.7,10.38,232.27-2.86,63.45-10.84,123.23-21.29,187.78-14.92,49.52,4.88,97.46,22.23,147.11,27.52,41.51,4.42,76.62-10.87,116-20.69,50.26-12.53,102.06-2.5,153-.82,33.87,1.12,67.75-1.34,100.08-12.14,41.47-13.84,76.49-39.87,110.75-66.24"/>
    </g>
    <g>
      <path class="cls-3" d="M-24.47,1048.49c29.76-37.73,74.62-88,126.66-88.35,36.59-.22,71.26,22.13,103,38,46.06,23.08,93.09,44.66,142.77,57.84,53.33,14.15,102.46,8.84,153.07-12.91,54.16-23.28,103.1-44.92,162.56-49.58,80.87-6.35,164.83,4.26,242.59,28.93,29.33,9.31,58.17,20.27,88.12,27.51,40.93,9.91,83,12.36,124.67,10.32,68-3.33,131.94-21.77,197.87-38.79,62.33-16.1,124.46-20.82,188.49-16.33,44.4,3.11,84.39,13.23,125.25,30.65,40.3,17.18,80.22,28.77,123.89,31.7,51.78,3.46,104.58-4.31,154.6-18.83,77.69-22.56,142.27-64.73,205.42-114.19"/>
      <path class="cls-3" d="M-24.46,1018.49c27.24-34,70-87.59,118.69-85.62,34,1.38,65.81,25.44,95,40.8,47.13,24.81,96.86,45,148.47,55.89,51.32,10.82,99.62,10.9,148-12.54,18.54-9,36.24-19.61,55.17-27.79,29.83-12.89,61.33-19.43,93.34-22.2,88.56-7.66,181.71,2.69,268.26,25.3,75,19.59,145.64,40.75,224.12,36.41,70.76-3.91,138.18-20.56,207.28-35.33,63.93-13.67,127-16.28,192-11.09,41.93,3.34,79.32,12,117.75,29,37.25,16.41,74.16,26,114.7,28.49A465.27,465.27,0,0,0,1915,1022.05c77.31-22.42,137.75-67.68,199.51-117.54"/>
      <path class="cls-3" d="M-24.47,988.49c24.78-31.19,66.1-87,111.71-83.21,31.24,2.56,59.29,28.72,85.3,44.11a459.73,459.73,0,0,0,147.61,56.2c49,9.35,97.93,12,143.39-13,16.24-8.94,31.52-19.48,48.2-27.65,29-14.2,60.19-21.13,92-24.27,96.61-9.54,199,1.24,294.21,21.48,81.28,17.27,159.76,37.87,243.5,34,72.21-3.35,142-17.83,213.12-30.42,64.75-11.47,128-11.89,193.28-5.76,40.45,3.79,76.23,11.52,113.05,28.61,34.68,16.09,69.13,24.4,107.17,26.59,52,3,105.58-2.39,155.7-18.11,75.73-23.76,130.66-73.17,190.75-122.54"/>
      <path class="cls-3" d="M-24.49,958.5c23-29.3,63.43-86.58,106.86-81.55,28.55,3.31,52.42,31.85,74.81,47.72,42.28,30,91,49,141,58.46,47.33,9,96.5,12.29,139.58-14.11,15.88-9.74,30.73-20.95,47.3-29.59,28.41-14.82,59.38-22.07,90.84-25.44,103.76-11.12,214.08.1,317.22,18,89.29,15.49,176.61,33.83,267.65,30.91,72.69-2.34,143.51-14.19,215.38-24.77,64.75-9.54,127.41-8,192.35-1,40.13,4.33,75.27,11.82,111.53,29.49,32.88,16,65.27,23.84,101.67,25.93,51.11,2.93,103.68-2.24,152.4-19.65,73-26.1,121.84-80.6,180.38-128.42"/>
      <path class="cls-3" d="M-24.52,928.51c22.35-29,62.37-86.62,105.24-81,26.84,3.53,45.7,34.44,64.36,51.31,36.69,33.19,82.39,52.74,129.69,62.36,46.7,9.49,95.2,11.66,137.05-15.68,15.81-10.32,30.64-21.9,47.31-30.91,29.77-16.1,62.31-24.49,95.47-28.12,109-11.91,224.89-.41,334.08,15.34,97.94,14.12,194.16,29,293.34,27.54,72-1.09,142.57-10.12,214-19,63.88-8,125.38-4.86,189.13,2.67,41,4.85,76.79,12.7,113.54,31.51,31.86,16.31,62.93,24.34,98.58,26.47,49.89,3,100.84-2.38,147.55-22,69-29,113-88.47,169.69-134.44"/>
      <path class="cls-3" d="M-24.54,898.51c23-30.19,62.46-85.77,106.31-81.35,28.69,2.88,40.57,34.31,56.4,54.05,29.2,36.4,70.48,57.41,114.5,67.58C299.81,949.67,347,949,389,921.25c49.34-32.58,95-57,154.62-63.56,111.51-12.21,229.79.17,341.58,14,106,13.12,210.38,24.13,317.28,24.26,70.27.09,139.14-6,208.92-13.88,62.15-7,121.73-3,183.63,4.5,43.11,5.21,81,14.15,119.44,34.56,31.76,16.88,62.37,25.86,98.25,28.18,48.48,3.14,97.73-2.52,141.93-24.76,27.45-13.81,51.1-33.41,72.54-55.25,28.66-29.21,56-58.27,87.37-84.76"/>
      <path class="cls-3" d="M-24.54,868.51c25.2-33.07,64.24-85.45,111.18-83,30.91,1.6,42,31,53.43,55.09,19.29,40.51,52.65,62.51,94.72,74.36,48.61,13.69,94.76,7.49,137.73-19.51,20.74-13,41-26.78,63.17-37.33,34.95-16.62,73.07-24.42,111.13-28.31,110.28-11.27,226-.47,336.35,11.84,55.25,6.16,110.46,12.71,165.93,16.63,56.74,4,113.43,4,170.25,4.8a1570.23,1570.23,0,0,0,200.13-10c59.31-6.74,115.4-4.51,174.58,3.13,46.88,6.05,89.11,17,130.77,39.31,32.42,17.37,64,28.78,101.06,31,47.49,2.87,94.85-2.46,136.31-27.64,24.38-14.81,43.55-35,62.44-56,28.23-31.47,57.26-61.3,89.87-88.31"/>
      <path class="cls-3" d="M-24.52,838.51C4.09,801.8,42.72,752.59,94.14,752.9c33.07.21,46.2,26.86,56.07,54.17,14.67,40.61,31.67,67.34,73.79,81.57,50.13,16.94,96.78,4.69,141.84-21.38C428.52,831,491.54,813,563.68,807.18c105.46-8.49,213.51-6.18,319,4.45,58,5.85,115.94,12.19,174.17,15.54,57.75,3.32,115.47,2.77,173.23,3.87,61.92,1.19,124.69,3.51,185.63-9.63,20.57-4.43,40.87-9.45,62-10.72,32.57-2,65.3,2.88,97.4,7.46,53.86,7.67,103.86,23,152.12,48.29,34.82,18.21,67.92,32.36,107.71,35.07,46.45,3.15,92.79-2.13,131.45-30.26,22.61-16.46,39.81-39,57.77-60.15a618.33,618.33,0,0,1,90.35-86.6"/>
      <path class="cls-3" d="M-24.53,808.51c31-40.81,72.16-86.51,127.35-88.59,34.74-1.31,52.37,21.82,62.63,51.91,12.53,36.77,21,70.06,58.4,86.86,50.25,22.59,100.49-.17,147.83-22.19C441.62,804,513,791.88,589.58,788.21c97.47-4.67,193.88-13.9,291.63-6.46,117,8.92,233.15,16.58,350.49,18.35,55.45.84,110.62,3.62,163.15-16.9,49.93-19.49,95-16.57,147.61-8.82,61,9,119.14,25.9,174.25,54.23,39.43,20.26,76.11,40.83,121.2,44.55,47.41,3.91,91.39-2.89,127.73-35.71,21.48-19.4,38.9-42.82,58.17-64.3,27.08-30.17,58.1-54.74,90.68-78.68"/>
      <path class="cls-3" d="M-24.54,778.51c33-43.64,78-87.76,135.76-91.48,86.09-5.53,67.48,105.39,124.54,137.57,47,26.48,106.18-2,153.14-19C464.56,778.12,540,772,619.94,771c45.6-.58,89.48-8.18,134.55-14.11,41.3-5.44,82.66-6.51,124.26-5,113,4.19,225.58,12.49,338.67,13.14,50.94.29,99.37.92,144.59-24.77,45-25.57,90.56-20.12,140.33-12.85,67.08,9.81,131.8,25.85,193.66,54.65,45.51,21.19,89.18,46.57,140,51.87,48.22,5,89.69-6.9,126-39.75,20.88-18.92,38.91-40.73,59.34-60.12,28.36-26.94,61.22-47.44,93.21-69.66"/>
      <path class="cls-3" d="M-24.53,748.51C10.2,703,58.25,659.63,117.89,654.74c36.41-3,65.87,13,83.21,44.83,16.68,30.6,22.13,69.13,54.76,88.12,47.65,27.73,110,.27,157.55-13.08,78.76-22.1,155.67-22.23,236.79-20.82,41.93.74,80.43-9.64,120.94-19a508.3,508.3,0,0,1,104.64-12.61c104.59-2.13,209.59,3.65,314.06,3.14,49.17-.25,92-2.08,133.29-30.25,42-28.61,89.76-21.72,137.79-15,71.42,9.93,141,23.39,208.3,50.46C1721.31,751.43,1772,778,1828.67,783.3c48.45,4.5,89.63-8.2,127.86-38.37,21-16.57,40.28-35.14,61.92-50.9,30.52-22.24,64.89-38.29,96-59.57"/>
      <path class="cls-3" d="M-24.5,718.5c35.83-46.23,85.26-89.45,145.89-95,37.72-3.43,72,10.78,95.09,40.75,21.68,28.14,31.54,66.21,64,85,48.33,28,110.73,4.92,160.58-5.62,78.9-16.69,155.06-11.59,234.78-8.93,68.27,2.28,129.27-35.42,197-42.29,93.14-9.46,188.47-8.23,281.81-9.64,29.25-.45,60.09-.34,88.18-9.89,15.34-5.22,28-14.28,41.38-23.12,42.42-28.06,92.26-21.38,140.27-15.13,73.33,9.54,145.47,19.16,216.15,42.59,58.35,19.35,115.49,44.22,177.49,48.28,48.1,3.16,91-8.23,132.26-32.85,21.73-13,42.77-26.87,65.52-38,33.44-16.42,68.18-28.18,98.7-50.1"/>
      <path class="cls-3" d="M-24.48,688.49c36.25-46,85.23-89.37,146-95,38.74-3.59,76.82,11.24,105.32,37.22,27.67,25.22,44.86,61.9,78.93,79.81,50.38,26.49,109,10.2,161.77,2.1C543.3,701,616.71,710,692.12,711.88c38.23,1,71.09-9.28,106-24.62,23.47-10.32,46.85-19.39,72-24.65,80.06-16.71,165.85-21.53,247-23.16,28.4-.56,57.81-1.23,85.29-9.67,17.36-5.33,32.44-14.75,48.4-23.09,46.29-24.18,98-18.77,148.08-12.82,72.3,8.59,144.16,13.75,215.12,32,63.55,16.31,126,37.32,192.07,39.16,47.82,1.32,93.25-8,138-24.49,57.38-21.24,120.38-29.25,170.43-66"/>
      <path class="cls-3" d="M-24.46,658.49c35.81-45.13,84.38-89.47,144.3-94.81,40.44-3.6,76.45,14.6,109.48,36.09,34.16,22.22,61.46,56.45,98.89,73.05,51.91,23,106.05,14.75,160.71,8.86,69.38-7.47,137.81,1.75,206.63,1.93,38.6.11,73-8.8,108.66-23.76,21.45-9,42-19.78,64.17-27.11,68.14-22.53,143.71-33.78,214.86-35.34,30-.66,60.48-2,89.79-9.6,19.26-5,37.38-13.22,56.18-19.61,52.48-17.83,107.34-13.33,161.49-7.79,67.78,6.93,135.85,7.72,203.23,19.45,66.94,11.65,132.76,27,201.07,26.37,48.17-.48,96.16-7.71,143.79-14.56,24.06-3.46,48.12-5.28,72.34-7,39.36-2.78,71.68-16.78,103.38-40.17"/>
      <path class="cls-3" d="M-24.47,628.49C9.85,585,58.46,539.16,116.28,534.07c40-3.51,75.69,16.06,108.82,36.17C263.42,593.5,301.8,622,344,637.39c51.91,19,102.61,17.62,156.91,13.4,64.53-5,128.66,1.9,192.64,2.08,62.25.19,117.27-27,174.27-50.09,61.77-25,123.71-43,190.59-44.18,57.14-1,110.06-11.5,166-22.19,57.18-10.93,113.73-6.51,171.33-2,62.76,4.95,125.8,3.51,188.62,8.35,67.66,5.21,134.4,13.81,202.43,10.79,49.72-2.21,98.67-7.31,148.55-4.32,25.88,1.55,51.75,6.73,77.74,5.42,38.11-1.92,71.12-17.83,101.45-40.18"/>
      <path class="cls-3" d="M-24.49,598.5C8.12,556.88,56,509.36,111.34,504.61c38.83-3.33,73.74,17.45,106.1,36.47,42.27,24.84,84.64,50.59,132,64.43,50,14.64,99.82,18.31,151.69,15,63-4,125.66,1,188.22,1s119-26.88,176.9-48.9c22.47-8.55,44.48-18.16,66.77-27.16,38.52-15.54,73.88-20.17,115.28-20.42,60.62-.35,118.76-8.67,178.77-15.76,60.26-7.11,119.72.15,179.77,4.26,59.61,4.09,119.3-.42,179.12.84,66.08,1.4,131.56,1.83,197.55-2.92,51.91-3.73,99.29-5.07,150.72,4.63,25.76,4.85,51.79,9.8,78.13,8.48,38.29-1.91,71.61-17.74,102.18-40.1"/>
      <path class="cls-3" d="M-24.47,568.5c31.39-39.44,76.71-88.77,130-93.25,37.22-3.13,70.81,18.82,101.67,36.94,44.13,25.92,88.61,50.24,137.92,63.79a440.65,440.65,0,0,0,150.43,14.85c62.87-4.59,125.34-.74,187.83-1,63-.29,120.41-26.5,179.31-47.42,23.68-8.41,46.84-18,70.25-27.16,38.07-14.82,72.95-19.73,113.76-20.32,62.1-.9,123.49-6.71,185.46-9.83,64.09-3.22,126.63,7.23,190.34,11.49,56.42,3.77,112-5.19,168.31-7.27,64-2.36,127.63-4.29,191.47-9.27,51.61-4,99.16-3.71,150.16,5.93,25.88,4.89,52,9.79,78.5,8.52,38.69-1.85,72.53-17.5,103.55-40"/>
      <path class="cls-3" d="M-24.46,538.5C5.34,501.16,48.46,450,99.38,445.92c35.26-2.83,67,20.12,95.9,37.57,44.51,26.84,90,50.5,140.27,63.54,49.62,12.87,99.3,18.56,150.7,14.16,63.59-5.44,126.79-2.75,190.12-3.43S798,531.83,857.76,512c24.27-8.06,48-17.38,71.93-26.37,38.23-14.36,73.49-19.74,114.25-20.19,64.85-.7,130.19-3,195.2-2.5,68.15.49,134.55,14.12,202.19,19.21,53.07,4,104.17-9.83,156.67-15.57,60.35-6.6,121.1-11.21,181.48-16.82,51.33-4.76,99.14-3.66,149.9,5.87,26.92,5.06,54.11,10.08,81.64,8.56,38.53-2.13,72.41-17.39,103.47-39.68"/>
      <path class="cls-3" d="M-24.47,508.5C3.42,473.64,44.62,420,93.36,416.58c33.33-2.32,62.64,21.4,89.21,38.31,43.75,27.84,89.23,50.95,139.38,63.62s100.43,18.24,152.26,13.11c65.06-6.42,129.71-4.92,194.64-6,63.81-1.09,122.46-25.22,183-44.06,24.22-7.54,47.95-16.22,71.78-24.88,39.09-14.19,75.06-20.11,116.64-20.08,68.65.05,138.29,1.86,207,5.62,72.27,3.95,142.74,20.25,214.48,26.92,50,4.66,96.56-14,145-23.55,55.78-11.07,112.87-18.64,169.18-25.53,51-6.24,98.79-4.23,149.37,5.19,69.38,12.93,129.35,11.82,189.15-30.71"/>
      <path class="cls-3" d="M-24.49,478.5C1.76,445.29,41.32,390.27,88,387.17c31.13-2.08,57.93,22.62,81.9,39.1,42,28.84,86.54,51.62,135.74,64,50.92,12.85,102.29,17.71,154.84,11.8,67.11-7.55,133.79-7.13,200.92-8.67,64-1.47,123-24.53,184.09-42.41,24.52-7.17,48.57-15.48,72.69-23.86,39.53-13.74,76-19.86,117.83-19.07,73,1.38,147.13,7.31,220.08,14,76.2,7,150.87,26.41,226.35,34.11,48,4.89,89.06-17,134.08-30.7,50.6-15.39,103.49-26.25,155.44-34.84,50.68-8.38,98.28-5.26,148.73,4.07,70.41,13,132.89,12.88,193.81-30.24"/>
      <path class="cls-3" d="M-24.5,448.5c24.82-31.91,63.34-88,108.28-90.87,29.14-1.86,53.11,23.67,74.43,39.93,39.3,30,82,52.43,129.66,64.68A420.59,420.59,0,0,0,446,472.59c69.61-8.7,138.77-9.25,208.54-11.15,64.09-1.73,123.07-23.91,184.52-40.92,24.67-6.83,48.9-14.75,73.18-22.82,40-13.3,76.93-19.52,119.09-17.85,77.45,3.07,156.1,12.9,233.42,22.12,79.71,9.5,157.85,31,237,40.24,47,5.5,83-18.63,124.73-36.46,45.14-19.3,93.51-33.68,141.14-44.2,50.13-11.09,97.8-6.49,148.09,2.68,71.6,13.06,136.69,14.18,198.77-29.73"/>
      <path class="cls-3" d="M-24.52,418.5c24-31.25,62.17-87.47,105.75-90.6,27.06-1.94,48.6,24.69,67.1,40.74C184.19,399.75,224.45,422,270,434.2c52.91,14.16,107.47,16.19,162,8.87,72.41-9.71,144.32-11.17,217-13.29,64-1.87,122.7-23.46,184.18-39.72,24.66-6.53,48.92-14.08,73.23-21.82,40.47-12.89,77.8-19.1,120.26-16.58,81.77,4.84,164.6,18.22,246.17,29.41,82.51,11.32,163.5,34,245.45,44.82,46.85,6.17,78.78-18.52,117.73-40.37a603.16,603.16,0,0,1,127.18-53c49.35-14.2,97.55-7.75,147.6,1.23,72.72,13,140.59,15.72,203.7-29.23"/>
      <path class="cls-3" d="M-24.54,388.5C-.8,357.22,37.27,301.09,80.76,298c26.11-1.88,44.24,25.05,60.4,41.47C173,371.73,210,393.85,253.2,406c53.94,15.22,110.42,15.3,166.1,7.49,75.38-10.57,150.16-12.78,225.94-14.94,63.57-1.81,121.77-23.22,183-38.91,24.49-6.29,48.63-13.5,72.8-20.92,40.82-12.52,78.52-18.64,121.16-15.41,85.57,6.48,172,22.85,257.42,35.33,84.36,12.32,167.22,35.42,251,47.33,47.17,6.71,77-16.4,113.89-41.88,35.54-24.54,74.13-46.16,114.43-60.74,48.23-17.46,97.71-8.9,147.4-.11,74.36,13.15,143.47,16.7,208.22-28.79"/>
      <path class="cls-3" d="M-24.54,358.5c24.12-31.9,62.38-87.24,106.35-90.74,27.5-2.18,40.92,23.51,55.72,42,26.71,33.45,60.93,55.67,101.34,67.8,54.88,16.47,113.4,14.43,170.18,6.31,78.31-11.19,156-14,234.83-15.91,62.93-1.52,120.23-23.27,180.75-38.61,65.2-16.53,125.38-40.61,193.49-34.68,88.56,7.72,177.72,26.43,266.26,39.34,84.95,12.38,168.42,34.81,252.71,47.26,47.78,7.06,77.84-12,114-40.48,32.42-25.51,66.2-50.41,103.77-66.8,46.9-20.46,98.5-9.75,147.66-1.15,75.78,13.27,145.64,17.27,212-28.41"/>
      <path class="cls-3" d="M-24.53,328.5c26-34.1,63.49-87.27,110.15-91.45,28.49-2.55,42,20.78,54.72,42.22,21,35.49,49.06,57,87.92,69.49,55.52,17.88,116.25,13.69,174,5.46,80.93-11.53,161.68-16.14,243.3-18.44,61-1.72,118.65-21.46,177.38-36.52,64.52-16.55,124.54-39.84,191.88-33.65,90.4,8.3,181.16,28.61,271.81,40.88,84.09,11.37,166.63,29.52,249.79,43.75,46.9,8,82.82-6,118.83-35.31,31-25.2,60.52-52.87,96.07-70.62,45.65-22.78,99.86-10.11,148.48-1.7,76.33,13.2,147.94,18.23,214.7-28.14"/>
      <path class="cls-3" d="M-24.51,298.5C4.13,261.73,41,211,91.36,206c29.73-2.94,45,17.84,57.12,41.76,17.8,35.16,36.34,58.7,74.19,71.63,56,19.15,118.59,13.3,177.39,5,83.74-11.76,166.67-21.85,251.24-25,58.23-2.19,116.81-16.2,173.41-30.06,63.81-15.63,121.09-39.38,187.83-33.47,91.31,8.08,182.54,30.09,274.45,40.38,82.45,9.24,163.22,22.78,244.57,37.84,44.73,8.29,87.21-2.55,124.4-28.53,32-22.35,57.5-53.51,92.53-71.46,45.78-23.45,101.81-9.92,150-1.6,33.88,5.85,68,12.8,102.55,12,42.33-1,79.24-15.49,113.47-39.95"/>
      <path class="cls-3" d="M-24.53,268.51c30.34-40,69.21-87.73,122.71-93.81,31-3.52,49.37,14.83,62.07,40.87,16,32.8,29.46,59.44,64.15,73.44,55,22.19,121.89,13.77,180.49,3.84,85-14.4,169-28.58,255.11-32.89a1330.57,1330.57,0,0,0,171.93-20.38c21.44-3.94,42-10.79,62.74-17.42,39.71-12.71,77.14-19.34,118.62-15.41,91.56,8.66,182.48,31.59,275.17,38.83,79.49,6.21,157.21,14.51,235.64,28.85,44.13,8.06,90,2.5,129.66-19.46,34.46-19.11,59.54-51.95,93.4-70.75,44.94-25,103.56-8.34,151.63,1.52,33.73,6.92,68,14,102.62,12.39,42.55-2,79.22-18.52,113.09-43.63"/>
      <path class="cls-3" d="M-24.54,238.51c32-42.4,74-88.49,129.79-95.13,32.12-3.82,54.4,12.12,69,39.55,16.46,31,27,59.2,59.93,74.25,54.08,24.72,123.48,13.18,181.39,1.7,84.83-16.81,168.43-34.81,254.92-40.11,36.84-2.26,73.75-5.9,110.69-7.22,20.65-.74,41.42.16,62-1.52,21.23-1.74,41.48-7.52,61.84-13.5,39.14-11.5,75.39-18.42,116-14.26,89.54,9.18,178.64,29.59,269.79,32.46,75.66,2.39,149.32,5.25,224.19,17.88,44.28,7.47,92.34,8.41,135-8,36.92-14.16,64.1-45.47,98-63.79,46.11-25,102.66-6.81,151.67,3,33.61,6.7,67.93,12.71,102.32,9.5,42.66-4,79-23.08,112.55-48.82"/>
      <path class="cls-3" d="M-24.53,208.51C9,164.28,54,119.28,111.75,112.16c33.36-4.11,59.63,10,77.17,38,18.34,29.25,28.84,58.58,60.74,74.1,53.33,26,123.59,11.9,180.56-1,83.52-18.95,165.64-40,251.27-46.25,37.09-2.71,74.8-4.34,112-2.19,21.19,1.22,42.2,4.83,63.4,5.75,21,.9,41.09-2.73,61.43-7.43,39.1-9,75.39-15.57,115.44-11.9,86.3,7.9,172.16,24.87,259.92,22.54,71.41-1.9,140.53-4.3,211.51,6.13,45.52,6.68,94.16,14.15,140,4.61,38.88-8.09,68.93-35.74,103.62-52.13,47.46-22.44,102.14-5.3,152,2.93,33.59,5.55,67.88,9.49,101.76,4,42.56-6.86,78.51-28.55,111.93-54.8"/>
      <path class="cls-3" d="M-24.51,178.5c34.91-45.4,82.1-89.83,141.35-97.29,35-4.41,64.69,8.79,86.09,36.35,20.72,26.69,33.32,58.25,65.86,73.15,55.11,25.22,122.25,10.3,178.35-4,81.23-20.74,160.91-44,244.75-50.83,37.05-3,75-2.82,112,2.15,22.85,3.07,45,9.26,67.69,13.1,20.63,3.48,40.72,2.77,61.39-.11,39.49-5.52,77-11.33,116.86-8.6,82.15,5.66,163.89,18.23,247,10.35,67.2-6.37,131.53-13.38,198.93-5.21,47.57,5.77,95.75,18.95,144.17,16.92,40.63-1.7,72.66-24,109.81-37.3,49.41-17.7,102-3.82,152.49,1.62,33.68,3.63,67.83,4.66,101-3.41,42.17-10.26,77.68-34.34,111.3-60.85"/>
      <path class="cls-3" d="M-24.49,148.5c35.82-45.86,84.13-90.18,144.17-97.82,36.85-4.69,69.53,8.25,95.08,34.69,24.37,25.23,41.2,56.6,74.66,71.48,54.95,24.44,120.05,8.65,175.08-6.89,78.24-22.11,154.67-46.54,236-53.37C739.67,93.3,780.09,95,818.84,103c22.75,4.69,44.52,12.44,66.85,18.64,58.76,16.32,122.08.71,181.75,3,77.65,2.94,154.7,10.38,232.27-2.86,63.45-10.84,123.23-21.29,187.78-14.92,49.52,4.88,97.46,22.23,147.11,27.52,41.51,4.42,76.62-10.87,116-20.69,50.26-12.53,102.06-2.5,153-.82,33.87,1.12,67.75-1.34,100.08-12.14,41.47-13.84,76.49-39.87,110.75-66.24"/>
    </g>
    <g>
      <path class="cls-4" d="M-24.47,1030.49c29.76-37.73,74.62-88,126.66-88.35,36.59-.22,71.26,22.13,103,38,46.06,23.08,93.09,44.66,142.77,57.84,53.33,14.15,102.46,8.84,153.07-12.91,54.16-23.28,103.1-44.92,162.56-49.58,80.87-6.35,164.83,4.26,242.59,28.93,29.33,9.31,58.17,20.27,88.12,27.51,40.93,9.91,83,12.36,124.67,10.32,68-3.33,131.94-21.77,197.87-38.79,62.33-16.1,124.46-20.82,188.49-16.33,44.4,3.11,84.39,13.23,125.25,30.65,40.3,17.18,80.22,28.77,123.89,31.7,51.78,3.46,104.58-4.31,154.6-18.83,77.69-22.56,142.27-64.73,205.42-114.19"/>
      <path class="cls-4" d="M-24.46,1000.49c27.24-34,70-87.59,118.69-85.62,34,1.38,65.81,25.44,95,40.8,47.13,24.81,96.86,45,148.47,55.89,51.32,10.82,99.62,10.9,148-12.54,18.54-9,36.24-19.61,55.17-27.79,29.83-12.89,61.33-19.43,93.34-22.2,88.56-7.66,181.71,2.69,268.26,25.3,75,19.59,145.64,40.75,224.12,36.41,70.76-3.91,138.18-20.56,207.28-35.33,63.93-13.67,127-16.28,192-11.09,41.93,3.34,79.32,12,117.75,29,37.25,16.41,74.16,26,114.7,28.49A465.27,465.27,0,0,0,1915,1004.05c77.31-22.42,137.75-67.68,199.51-117.54"/>
      <path class="cls-4" d="M-24.47,970.49c24.78-31.19,66.1-87,111.71-83.21,31.24,2.56,59.29,28.72,85.3,44.11a459.73,459.73,0,0,0,147.61,56.2c49,9.35,97.93,12,143.39-13,16.24-8.94,31.52-19.48,48.2-27.65,29-14.2,60.19-21.13,92-24.27,96.61-9.54,199,1.24,294.21,21.48,81.28,17.27,159.76,37.87,243.5,34,72.21-3.35,142-17.83,213.12-30.42,64.75-11.47,128-11.89,193.28-5.76,40.45,3.79,76.23,11.52,113.05,28.61,34.68,16.09,69.13,24.4,107.17,26.59,52,3,105.58-2.39,155.7-18.11,75.73-23.76,130.66-73.17,190.75-122.54"/>
      <path class="cls-4" d="M-24.49,940.5c23-29.3,63.43-86.58,106.86-81.55,28.55,3.31,52.42,31.85,74.81,47.72,42.28,30,91,49,141,58.46,47.33,9,96.5,12.29,139.58-14.11,15.88-9.74,30.73-20.95,47.3-29.59,28.41-14.82,59.38-22.07,90.84-25.44,103.76-11.12,214.08.1,317.22,18,89.29,15.49,176.61,33.83,267.65,30.91,72.69-2.34,143.51-14.19,215.38-24.77,64.75-9.54,127.41-8,192.35-1,40.13,4.33,75.27,11.82,111.53,29.49,32.88,16,65.27,23.84,101.67,25.93,51.11,2.93,103.68-2.24,152.4-19.65,73-26.1,121.84-80.6,180.38-128.42"/>
      <path class="cls-4" d="M-24.52,910.51c22.35-29,62.37-86.62,105.24-81,26.84,3.53,45.7,34.44,64.36,51.31,36.69,33.19,82.39,52.74,129.69,62.36,46.7,9.49,95.2,11.66,137.05-15.68,15.81-10.32,30.64-21.9,47.31-30.91,29.77-16.1,62.31-24.49,95.47-28.12,109-11.91,224.89-.41,334.08,15.34,97.94,14.12,194.16,29,293.34,27.54,72-1.09,142.57-10.12,214-19,63.88-8,125.38-4.86,189.13,2.67,41,4.85,76.79,12.7,113.54,31.51,31.86,16.31,62.93,24.34,98.58,26.47,49.89,3,100.84-2.38,147.55-22,69-29,113-88.47,169.69-134.44"/>
      <path class="cls-4" d="M-24.54,880.51c23-30.19,62.46-85.77,106.31-81.35,28.69,2.88,40.57,34.31,56.4,54.05,29.2,36.4,70.48,57.41,114.5,67.58C299.81,931.67,347,931,389,903.25c49.34-32.58,95-57,154.62-63.56,111.51-12.21,229.79.17,341.58,14,106,13.12,210.38,24.13,317.28,24.26,70.27.09,139.14-6,208.92-13.88,62.15-7,121.73-3,183.63,4.5,43.11,5.21,81,14.15,119.44,34.56,31.76,16.88,62.37,25.86,98.25,28.18,48.48,3.14,97.73-2.52,141.93-24.76,27.45-13.81,51.1-33.41,72.54-55.25,28.66-29.21,56-58.27,87.37-84.76"/>
      <path class="cls-4" d="M-24.54,850.51c25.2-33.07,64.24-85.45,111.18-83,30.91,1.6,42,31,53.43,55.09,19.29,40.51,52.65,62.51,94.72,74.36,48.61,13.69,94.76,7.49,137.73-19.51,20.74-13,41-26.78,63.17-37.33,34.95-16.62,73.07-24.42,111.13-28.31,110.28-11.27,226-.47,336.35,11.84,55.25,6.16,110.46,12.71,165.93,16.63,56.74,4,113.43,4,170.25,4.8a1570.23,1570.23,0,0,0,200.13-10c59.31-6.74,115.4-4.51,174.58,3.13,46.88,6.05,89.11,17,130.77,39.31,32.42,17.37,64,28.78,101.06,31,47.49,2.87,94.85-2.46,136.31-27.64,24.38-14.81,43.55-35,62.44-56,28.23-31.47,57.26-61.3,89.87-88.31"/>
      <path class="cls-4" d="M-24.52,820.51C4.09,783.8,42.72,734.59,94.14,734.9c33.07.21,46.2,26.86,56.07,54.17,14.67,40.61,31.67,67.34,73.79,81.57,50.13,16.94,96.78,4.69,141.84-21.38C428.52,813,491.54,795,563.68,789.18c105.46-8.49,213.51-6.18,319,4.45,58,5.85,115.94,12.19,174.17,15.54,57.75,3.32,115.47,2.77,173.23,3.87,61.92,1.19,124.69,3.51,185.63-9.63,20.57-4.43,40.87-9.45,62-10.72,32.57-2,65.3,2.88,97.4,7.46,53.86,7.67,103.86,23,152.12,48.29,34.82,18.21,67.92,32.36,107.71,35.07,46.45,3.15,92.79-2.13,131.45-30.26,22.61-16.46,39.81-39,57.77-60.15a618.33,618.33,0,0,1,90.35-86.6"/>
      <path class="cls-4" d="M-24.53,790.51c31-40.81,72.16-86.51,127.35-88.59,34.74-1.31,52.37,21.82,62.63,51.91,12.53,36.77,21,70.06,58.4,86.86,50.25,22.59,100.49-.17,147.83-22.19C441.62,786,513,773.88,589.58,770.21c97.47-4.67,193.88-13.9,291.63-6.46,117,8.92,233.15,16.58,350.49,18.35,55.45.84,110.62,3.62,163.15-16.9,49.93-19.49,95-16.57,147.61-8.82,61,9,119.14,25.9,174.25,54.23,39.43,20.26,76.11,40.83,121.2,44.55,47.41,3.91,91.39-2.89,127.73-35.71,21.48-19.4,38.9-42.82,58.17-64.3,27.08-30.17,58.1-54.74,90.68-78.68"/>
      <path class="cls-4" d="M-24.54,760.51c33-43.64,78-87.76,135.76-91.48,86.09-5.53,67.48,105.39,124.54,137.57,47,26.48,106.18-2,153.14-19C464.56,760.12,540,754,619.94,753c45.6-.58,89.48-8.18,134.55-14.11,41.3-5.44,82.66-6.51,124.26-5,113,4.19,225.58,12.49,338.67,13.14,50.94.29,99.37.92,144.59-24.77,45-25.57,90.56-20.12,140.33-12.85,67.08,9.81,131.8,25.85,193.66,54.65,45.51,21.19,89.18,46.57,140,51.87,48.22,5,89.69-6.9,126-39.75,20.88-18.92,38.91-40.73,59.34-60.12,28.36-26.94,61.22-47.44,93.21-69.66"/>
      <path class="cls-4" d="M-24.53,730.51C10.2,685,58.25,641.63,117.89,636.74c36.41-3,65.87,13,83.21,44.83,16.68,30.6,22.13,69.13,54.76,88.12,47.65,27.73,110,.27,157.55-13.08,78.76-22.1,155.67-22.23,236.79-20.82,41.93.74,80.43-9.64,120.94-19a508.3,508.3,0,0,1,104.64-12.61c104.59-2.13,209.59,3.65,314.06,3.14,49.17-.25,92-2.08,133.29-30.25,42-28.61,89.76-21.72,137.79-15,71.42,9.93,141,23.39,208.3,50.46C1721.31,733.43,1772,760,1828.67,765.3c48.45,4.5,89.63-8.2,127.86-38.37,21-16.57,40.28-35.14,61.92-50.9,30.52-22.24,64.89-38.29,96-59.57"/>
      <path class="cls-4" d="M-24.5,700.5c35.83-46.23,85.26-89.45,145.89-95,37.72-3.43,72,10.78,95.09,40.75,21.68,28.14,31.54,66.21,64,85,48.33,28,110.73,4.92,160.58-5.62,78.9-16.69,155.06-11.59,234.78-8.93,68.27,2.28,129.27-35.42,197-42.29,93.14-9.46,188.47-8.23,281.81-9.64,29.25-.45,60.09-.34,88.18-9.89,15.34-5.22,28-14.28,41.38-23.12,42.42-28.06,92.26-21.38,140.27-15.13,73.33,9.54,145.47,19.16,216.15,42.59,58.35,19.35,115.49,44.22,177.49,48.28,48.1,3.16,91-8.23,132.26-32.85,21.73-13,42.77-26.87,65.52-38,33.44-16.42,68.18-28.18,98.7-50.1"/>
      <path class="cls-4" d="M-24.48,670.49c36.25-46,85.23-89.37,146-95,38.74-3.59,76.82,11.24,105.32,37.22,27.67,25.22,44.86,61.9,78.93,79.81,50.38,26.49,109,10.2,161.77,2.1C543.3,683,616.71,692,692.12,693.88c38.23,1,71.09-9.28,106-24.62,23.47-10.32,46.85-19.39,72-24.65,80.06-16.71,165.85-21.53,247-23.16,28.4-.56,57.81-1.23,85.29-9.67,17.36-5.33,32.44-14.75,48.4-23.09,46.29-24.18,98-18.77,148.08-12.82,72.3,8.59,144.16,13.75,215.12,32,63.55,16.31,126,37.32,192.07,39.16,47.82,1.32,93.25-8,138-24.49,57.38-21.24,120.38-29.25,170.43-66"/>
      <path class="cls-4" d="M-24.46,640.49c35.81-45.13,84.38-89.47,144.3-94.81,40.44-3.6,76.45,14.6,109.48,36.09,34.16,22.22,61.46,56.45,98.89,73.05,51.91,23,106.05,14.75,160.71,8.86,69.38-7.47,137.81,1.75,206.63,1.93,38.6.11,73-8.8,108.66-23.76,21.45-9,42-19.78,64.17-27.11,68.14-22.53,143.71-33.78,214.86-35.34,30-.66,60.48-2,89.79-9.6,19.26-5,37.38-13.22,56.18-19.61,52.48-17.83,107.34-13.33,161.49-7.79,67.78,6.93,135.85,7.72,203.23,19.45,66.94,11.65,132.76,27,201.07,26.37,48.17-.48,96.16-7.71,143.79-14.56,24.06-3.46,48.12-5.28,72.34-7,39.36-2.78,71.68-16.78,103.38-40.17"/>
      <path class="cls-4" d="M-24.47,610.49C9.85,567,58.46,521.16,116.28,516.07c40-3.51,75.69,16.06,108.82,36.17C263.42,575.5,301.8,604,344,619.39c51.91,19,102.61,17.62,156.91,13.4,64.53-5,128.66,1.9,192.64,2.08,62.25.19,117.27-27,174.27-50.09,61.77-25,123.71-43,190.59-44.18,57.14-1,110.06-11.5,166-22.19,57.18-10.93,113.73-6.51,171.33-2,62.76,4.95,125.8,3.51,188.62,8.35,67.66,5.21,134.4,13.81,202.43,10.79,49.72-2.21,98.67-7.31,148.55-4.32,25.88,1.55,51.75,6.73,77.74,5.42,38.11-1.92,71.12-17.83,101.45-40.18"/>
      <path class="cls-4" d="M-24.49,580.5C8.12,538.88,56,491.36,111.34,486.61c38.83-3.33,73.74,17.45,106.1,36.47,42.27,24.84,84.64,50.59,132,64.43,50,14.64,99.82,18.31,151.69,15,63-4,125.66,1,188.22,1s119-26.88,176.9-48.9c22.47-8.55,44.48-18.16,66.77-27.16,38.52-15.54,73.88-20.17,115.28-20.42,60.62-.35,118.76-8.67,178.77-15.76,60.26-7.11,119.72.15,179.77,4.26,59.61,4.09,119.3-.42,179.12.84,66.08,1.4,131.56,1.83,197.55-2.92,51.91-3.73,99.29-5.07,150.72,4.63,25.76,4.85,51.79,9.8,78.13,8.48,38.29-1.91,71.61-17.74,102.18-40.1"/>
      <path class="cls-4" d="M-24.47,550.5c31.39-39.44,76.71-88.77,130-93.25,37.22-3.13,70.81,18.82,101.67,36.94,44.13,25.92,88.61,50.24,137.92,63.79a440.65,440.65,0,0,0,150.43,14.85c62.87-4.59,125.34-.74,187.83-1,63-.29,120.41-26.5,179.31-47.42,23.68-8.41,46.84-18,70.25-27.16,38.07-14.82,72.95-19.73,113.76-20.32,62.1-.9,123.49-6.71,185.46-9.83,64.09-3.22,126.63,7.23,190.34,11.49,56.42,3.77,112-5.19,168.31-7.27,64-2.36,127.63-4.29,191.47-9.27,51.61-4,99.16-3.71,150.16,5.93,25.88,4.89,52,9.79,78.5,8.52,38.69-1.85,72.53-17.5,103.55-40"/>
      <path class="cls-4" d="M-24.46,520.5C5.34,483.16,48.46,432,99.38,427.92c35.26-2.83,67,20.12,95.9,37.57,44.51,26.84,90,50.5,140.27,63.54,49.62,12.87,99.3,18.56,150.7,14.16,63.59-5.44,126.79-2.75,190.12-3.43S798,513.83,857.76,494c24.27-8.06,48-17.38,71.93-26.37,38.23-14.36,73.49-19.74,114.25-20.19,64.85-.7,130.19-3,195.2-2.5,68.15.49,134.55,14.12,202.19,19.21,53.07,4,104.17-9.83,156.67-15.57,60.35-6.6,121.1-11.21,181.48-16.82,51.33-4.76,99.14-3.66,149.9,5.87,26.92,5.06,54.11,10.08,81.64,8.56,38.53-2.13,72.41-17.39,103.47-39.68"/>
      <path class="cls-4" d="M-24.47,490.5C3.42,455.64,44.62,402,93.36,398.58c33.33-2.32,62.64,21.4,89.21,38.31,43.75,27.84,89.23,50.95,139.38,63.62s100.43,18.24,152.26,13.11c65.06-6.42,129.71-4.92,194.64-6,63.81-1.09,122.46-25.22,183-44.06,24.22-7.54,47.95-16.22,71.78-24.88,39.09-14.19,75.06-20.11,116.64-20.08,68.65.05,138.29,1.86,207,5.62,72.27,3.95,142.74,20.25,214.48,26.92,50,4.66,96.56-14,145-23.55,55.78-11.07,112.87-18.64,169.18-25.53,51-6.24,98.79-4.23,149.37,5.19,69.38,12.93,129.35,11.82,189.15-30.71"/>
      <path class="cls-4" d="M-24.49,460.5C1.76,427.29,41.32,372.27,88,369.17c31.13-2.08,57.93,22.62,81.9,39.1,42,28.84,86.54,51.62,135.74,64,50.92,12.85,102.29,17.71,154.84,11.8,67.11-7.55,133.79-7.13,200.92-8.67,64-1.47,123-24.53,184.09-42.41,24.52-7.17,48.57-15.48,72.69-23.86,39.53-13.74,76-19.86,117.83-19.07,73,1.38,147.13,7.31,220.08,14,76.2,7,150.87,26.41,226.35,34.11,48,4.89,89.06-17,134.08-30.7,50.6-15.39,103.49-26.25,155.44-34.84,50.68-8.38,98.28-5.26,148.73,4.07,70.41,13,132.89,12.88,193.81-30.24"/>
      <path class="cls-4" d="M-24.5,430.5c24.82-31.91,63.34-88,108.28-90.87,29.14-1.86,53.11,23.67,74.43,39.93,39.3,30,82,52.43,129.66,64.68A420.59,420.59,0,0,0,446,454.59c69.61-8.7,138.77-9.25,208.54-11.15,64.09-1.73,123.07-23.91,184.52-40.92,24.67-6.83,48.9-14.75,73.18-22.82,40-13.3,76.93-19.52,119.09-17.85,77.45,3.07,156.1,12.9,233.42,22.12,79.71,9.5,157.85,31,237,40.24,47,5.5,83-18.63,124.73-36.46,45.14-19.3,93.51-33.68,141.14-44.2,50.13-11.09,97.8-6.49,148.09,2.68,71.6,13.06,136.69,14.18,198.77-29.73"/>
      <path class="cls-4" d="M-24.52,400.5c24-31.25,62.17-87.47,105.75-90.6,27.06-1.94,48.6,24.69,67.1,40.74C184.19,381.75,224.45,404,270,416.2c52.91,14.16,107.47,16.19,162,8.87,72.41-9.71,144.32-11.17,217-13.29,64-1.87,122.7-23.46,184.18-39.72,24.66-6.53,48.92-14.08,73.23-21.82,40.47-12.89,77.8-19.1,120.26-16.58,81.77,4.84,164.6,18.22,246.17,29.41,82.51,11.32,163.5,34,245.45,44.82,46.85,6.17,78.78-18.52,117.73-40.37a603.16,603.16,0,0,1,127.18-53c49.35-14.2,97.55-7.75,147.6,1.23,72.72,13,140.59,15.72,203.7-29.23"/>
      <path class="cls-4" d="M-24.54,370.5C-.8,339.22,37.27,283.09,80.76,280c26.11-1.88,44.24,25.05,60.4,41.47C173,353.73,210,375.85,253.2,388c53.94,15.22,110.42,15.3,166.1,7.49,75.38-10.57,150.16-12.78,225.94-14.94,63.57-1.81,121.77-23.22,183-38.91,24.49-6.29,48.63-13.5,72.8-20.92,40.82-12.52,78.52-18.64,121.16-15.41,85.57,6.48,172,22.85,257.42,35.33,84.36,12.32,167.22,35.42,251,47.33,47.17,6.71,77-16.4,113.89-41.88,35.54-24.54,74.13-46.16,114.43-60.74,48.23-17.46,97.71-8.9,147.4-.11,74.36,13.15,143.47,16.7,208.22-28.79"/>
      <path class="cls-4" d="M-24.54,340.5c24.12-31.9,62.38-87.24,106.35-90.74,27.5-2.18,40.92,23.51,55.72,42,26.71,33.45,60.93,55.67,101.34,67.8,54.88,16.47,113.4,14.43,170.18,6.31,78.31-11.19,156-14,234.83-15.91,62.93-1.52,120.23-23.27,180.75-38.61,65.2-16.53,125.38-40.61,193.49-34.68,88.56,7.72,177.72,26.43,266.26,39.34,84.95,12.38,168.42,34.81,252.71,47.26,47.78,7.06,77.84-12,114-40.48,32.42-25.51,66.2-50.41,103.77-66.8,46.9-20.46,98.5-9.75,147.66-1.15,75.78,13.27,145.64,17.27,212-28.41"/>
      <path class="cls-4" d="M-24.53,310.5c26-34.1,63.49-87.27,110.15-91.45,28.49-2.55,42,20.78,54.72,42.22,21,35.49,49.06,57,87.92,69.49,55.52,17.88,116.25,13.69,174,5.46,80.93-11.53,161.68-16.14,243.3-18.44,61-1.72,118.65-21.46,177.38-36.52,64.52-16.55,124.54-39.84,191.88-33.65,90.4,8.3,181.16,28.61,271.81,40.88,84.09,11.37,166.63,29.52,249.79,43.75,46.9,8,82.82-6,118.83-35.31,31-25.2,60.52-52.87,96.07-70.62,45.65-22.78,99.86-10.11,148.48-1.7,76.33,13.2,147.94,18.23,214.7-28.14"/>
      <path class="cls-4" d="M-24.51,280.5C4.13,243.73,41,193,91.36,188c29.73-2.94,45,17.84,57.12,41.76,17.8,35.16,36.34,58.7,74.19,71.63,56,19.15,118.59,13.3,177.39,5,83.74-11.76,166.67-21.85,251.24-25,58.23-2.19,116.81-16.2,173.41-30.06,63.81-15.63,121.09-39.38,187.83-33.47,91.31,8.08,182.54,30.09,274.45,40.38,82.45,9.24,163.22,22.78,244.57,37.84,44.73,8.29,87.21-2.55,124.4-28.53,32-22.35,57.5-53.51,92.53-71.46,45.78-23.45,101.81-9.92,150-1.6,33.88,5.85,68,12.8,102.55,12,42.33-1,79.24-15.49,113.47-39.95"/>
      <path class="cls-4" d="M-24.53,250.51c30.34-40,69.21-87.73,122.71-93.81,31-3.52,49.37,14.83,62.07,40.87,16,32.8,29.46,59.44,64.15,73.44,55,22.19,121.89,13.77,180.49,3.84,85-14.4,169-28.58,255.11-32.89a1330.57,1330.57,0,0,0,171.93-20.38c21.44-3.94,42-10.79,62.74-17.42,39.71-12.71,77.14-19.34,118.62-15.41,91.56,8.66,182.48,31.59,275.17,38.83,79.49,6.21,157.21,14.51,235.64,28.85,44.13,8.06,90,2.5,129.66-19.46,34.46-19.11,59.54-51.95,93.4-70.75,44.94-25,103.56-8.34,151.63,1.52,33.73,6.92,68,14,102.62,12.39,42.55-2,79.22-18.52,113.09-43.63"/>
      <path class="cls-4" d="M-24.54,220.51c32-42.4,74-88.49,129.79-95.13,32.12-3.82,54.4,12.12,69,39.55,16.46,31,27,59.2,59.93,74.25,54.08,24.72,123.48,13.18,181.39,1.7,84.83-16.81,168.43-34.81,254.92-40.11,36.84-2.26,73.75-5.9,110.69-7.22,20.65-.74,41.42.16,62-1.52,21.23-1.74,41.48-7.52,61.84-13.5,39.14-11.5,75.39-18.42,116-14.26,89.54,9.18,178.64,29.59,269.79,32.46,75.66,2.39,149.32,5.25,224.19,17.88,44.28,7.47,92.34,8.41,135-8,36.92-14.16,64.1-45.47,98-63.79,46.11-25,102.66-6.81,151.67,3,33.61,6.7,67.93,12.71,102.32,9.5,42.66-4,79-23.08,112.55-48.82"/>
      <path class="cls-4" d="M-24.53,190.51C9,146.28,54,101.28,111.75,94.16c33.36-4.11,59.63,10,77.17,38,18.34,29.25,28.84,58.58,60.74,74.1,53.33,26,123.59,11.9,180.56-1,83.52-18.95,165.64-40,251.27-46.25,37.09-2.71,74.8-4.34,112-2.19,21.19,1.22,42.2,4.83,63.4,5.75,21,.9,41.09-2.73,61.43-7.43,39.1-9,75.39-15.57,115.44-11.9,86.3,7.9,172.16,24.87,259.92,22.54,71.41-1.9,140.53-4.3,211.51,6.13,45.52,6.68,94.16,14.15,140,4.61,38.88-8.09,68.93-35.74,103.62-52.13,47.46-22.44,102.14-5.3,152,2.93,33.59,5.55,67.88,9.49,101.76,4,42.56-6.86,78.51-28.55,111.93-54.8"/>
      <path class="cls-4" d="M-24.51,160.5c34.91-45.4,82.1-89.83,141.35-97.29,35-4.41,64.69,8.79,86.09,36.35,20.72,26.69,33.32,58.25,65.86,73.15,55.11,25.22,122.25,10.3,178.35-4,81.23-20.74,160.91-44,244.75-50.83,37.05-3,75-2.82,112,2.15,22.85,3.07,45,9.26,67.69,13.1,20.63,3.48,40.72,2.77,61.39-.11,39.49-5.52,77-11.33,116.86-8.6,82.15,5.66,163.89,18.23,247,10.35,67.2-6.37,131.53-13.38,198.93-5.21,47.57,5.77,95.75,18.95,144.17,16.92,40.63-1.7,72.66-24,109.81-37.3,49.41-17.7,102-3.82,152.49,1.62,33.68,3.63,67.83,4.66,101-3.41,42.17-10.26,77.68-34.34,111.3-60.85"/>
      <path class="cls-4" d="M-24.49,130.5C11.33,84.64,59.64,40.32,119.68,32.68c36.85-4.69,69.53,8.25,95.08,34.69C239.13,92.6,256,124,289.42,138.85c54.95,24.44,120.05,8.65,175.08-6.89,78.24-22.11,154.67-46.54,236-53.37C739.67,75.3,780.09,77,818.84,85c22.75,4.69,44.52,12.44,66.85,18.64,58.76,16.32,122.08.71,181.75,3,77.65,2.94,154.7,10.38,232.27-2.86C1363.16,93,1422.94,82.5,1487.49,88.87,1537,93.75,1585,111.1,1634.6,116.39c41.51,4.42,76.62-10.87,116-20.69,50.26-12.53,102.06-2.5,153-.82,33.87,1.12,67.75-1.34,100.08-12.14,41.47-13.84,76.49-39.87,110.75-66.24"/>
    </g>
  </g>
</svg>
