<svg id="Layer_1" data-name="Layer 1" xmlns="http://www.w3.org/2000/svg" viewBox="0 0 35.37 36">
  <defs>
    <style>
      .cls-1 {
        fill: #999;
      }

      .cls-2 {
        fill: #c69c6d;
      }

      .cls-3 {
        fill: #8c6239;
      }

      .cls-4 {
        fill: #ef1b1b;
      }
    </style>
  </defs>
  <title>knife-svg</title>
  <path class="cls-1" d="M17.06,23.57c-1.59-1.29-3-2.56-4.33-3.78-2.36-2.17-4.3-4.16-5.84-5.85A24.63,24.63,0,0,1,1.76,6.66c-.16-.35-.3-.71-.43-1.08A20.15,20.15,0,0,1,.28,0,12,12,0,0,0,4.85,2.54,11.61,11.61,0,0,0,9.74,3c4.74,4.58,9.44,9.17,14.18,13.75" transform="translate(-0.28)"/>
  <rect class="cls-2" x="19.84" y="14.52" width="2.24" height="13.47" rx="1.12" transform="translate(20.89 -8.6) rotate(45)"/>
  <path class="cls-3" d="M24.22,19.58c1.43,1.24,2.88,2.5,4.32,3.78,1.69,1.49,3.36,3,5,4.45a4.62,4.62,0,0,1,1.65,1.94,4.36,4.36,0,0,1-6.61,5.37C25.51,31.6,22.4,28,19.28,24.51" transform="translate(-0.28)"/>
  <path class="cls-4" d="M4.26,17.3A13.34,13.34,0,0,1,5.9,20.22a3.09,3.09,0,0,1-1,2.59,2.85,2.85,0,0,1-3.64,0,3,3,0,0,1-.84-2.37c.06-.83.41-1.31,1.43-2.86q.44-.64,1.14-1.77A13,13,0,0,1,4.26,17.3Z" transform="translate(-0.28)"/>
  <path class="cls-4" d="M10.07,26.43a13.39,13.39,0,0,1,1.65,2.92,3.14,3.14,0,0,1-1,2.59,2.88,2.88,0,0,1-3.64,0,3,3,0,0,1-.84-2.38c0-.83.4-1.31,1.43-2.85l1.14-1.77A13.1,13.1,0,0,1,10.07,26.43Z" transform="translate(-0.28)"/>
  <path class="cls-4" d="M15,17.71a3.35,3.35,0,0,1-2.28,2.08c-2.36-2.17-4.3-4.16-5.84-5.85A24.63,24.63,0,0,1,1.76,6.66a6.77,6.77,0,0,1,4,.14,5.31,5.31,0,0,1,2.83,2c.7,1.1.22,1.52.88,2.78a7.73,7.73,0,0,0,3.06,3c1.2.7,2,.81,2.42,1.7A2.51,2.51,0,0,1,15,17.71Z" transform="translate(-0.28)"/>
</svg>
